/usr/bin/ffmpeg -hide_banner -y -y -r 5 -start_number 0 -start_number_range 1 -i /home/drdehydratedwater/projects/neocities/public/shared/images/frame%04d.png -i /home/drdehydratedwater/projects/neocities/public/shared/images/KritaTempPalettegen_%06d.png -lavfi scale=w=54:h=64:flags=bicubic[0:v];[0:v][1:v]paletteuse=dither=sierra2_4a:diff_mode=none -f gif -loop 0 -gifflags +transdiff /home/drdehydratedwater/projects/neocities/public/shared/images/cursor.gif
=====================================================
Input #0, image2, from '/home/drdehydratedwater/projects/neocities/public/shared/images/frame%04d.png':
  Duration: 00:00:00.08, start: 0.000000, bitrate: N/A
  Stream #0:0: Video: png, rgba(pc, gbr/unknown/unknown), 59x69 [SAR 11811:11811 DAR 59:69], 25 fps, 25 tbr, 25 tbn
Input #1, image2, from '/home/drdehydratedwater/projects/neocities/public/shared/images/KritaTempPalettegen_%06d.png':
  Duration: 00:00:00.04, start: 0.000000, bitrate: N/A
  Stream #1:0: Video: png, rgba(pc, gbr/unknown/unknown), 16x16 [SAR 1:1 DAR 1:1], 25 fps, 25 tbr, 25 tbn
Stream mapping:
  Stream #0:0 (png) -> scale:default
  Stream #1:0 (png) -> paletteuse
  paletteuse:default -> Stream #0:0 (gif)
Press [q] to stop, [?] for help
Output #0, gif, to '/home/drdehydratedwater/projects/neocities/public/shared/images/cursor.gif':
  Metadata:
    encoder         : Lavf61.7.100
  Stream #0:0: Video: gif, pal8(pc, gbr/unknown/unknown, progressive), 54x64 [SAR 1888:1863 DAR 59:69], q=2-31, 200 kb/s, 5 fps, 100 tbn
      Metadata:
        encoder         : Lavc61.19.101 gif
[out#0/gif @ 0x55a989fe4580] video:4KiB audio:0KiB subtitle:0KiB other streams:0KiB global headers:0KiB muxing overhead: 0.483676%
frame=    2 fps=0.0 q=-0.0 Lsize=       4KiB time=00:00:00.40 bitrate=  83.1kbits/s speed=46.4x    
